Coordinates
version=1
nRows=30
nColumns=30
inDegrees=yes

Units are S.I. units (second, meters, Newtons, ...)
Angles are in degrees.

endheader
time	floatyaw	floatroll	floatpitch	floatx	floaty	floatz	pro_sup_l	deviation_l	flexion_l	cmc_flexion_l	cmc_abduction_l	mp_flexion_l	ip_flexion_l	2mcp_flexion_l	2mcp_abduction_l	2pm_flexion_l	2md_flexion_l	3mcp_flexion_l	3mcp_abduction_l	3pm_flexion_l	3md_flexion_l	4mcp_flexion_l	4mcp_abduction_l	4pm_flexion_l	4md_flexion_l	5mcp_flexion_l	5mcp_abduction_l	5pm_flexion_l	5md_flexion_l
-0.495000	-4.179282	-4.936475	96.455532	-0.107270	-0.183228	-0.039912	86.087007	0.734572	-3.063482	14.548675	2.191399	-22.370205	-34.511504	38.837138	9.433836	48.171931	34.517414	22.190591	4.929140	48.093085	33.894205	10.138020	-5.168918	63.077276	43.636634	2.054078	-7.718494	63.677679	43.458781
-0.485000	-4.179282	-4.936475	96.455532	-0.107141	-0.183116	-0.039839	86.012705	0.739472	-3.075835	14.586412	2.177420	-22.386693	-34.535278	38.816328	9.408806	48.182359	34.517352	22.222409	4.931057	48.090761	33.873837	10.189286	-5.182519	63.059440	43.618823	2.052373	-7.653821	63.681566	43.445113
-0.475000	-4.179282	-4.936475	96.455532	-0.106968	-0.182982	-0.039743	85.939070	0.758739	-3.105242	14.620690	2.179298	-22.404276	-34.561499	38.809146	9.381071	48.187699	34.512327	22.260630	4.937909	48.083700	33.850032	10.250431	-5.197362	63.029224	43.591528	2.057229	-7.593740	63.678475	43.429297
-0.465000	-4.179282	-4.936475	96.455532	-0.106748	-0.182822	-0.039624	85.873428	0.795337	-3.150065	14.647220	2.211269	-22.422200	-34.592640	38.805883	9.347763	48.192891	34.504708	22.302356	4.946001	48.076752	33.826160	10.312421	-5.211031	62.987865	43.559694	2.064427	-7.538943	63.655432	43.405083
-0.455000	-4.179282	-4.936475	96.455532	-0.106480	-0.182640	-0.039480	85.819224	0.845123	-3.202742	14.665215	2.283868	-22.438716	-34.631958	38.792421	9.307041	48.203555	34.497534	22.339582	4.951223	48.074460	33.805416	10.364074	-5.222601	62.940089	43.529402	2.070989	-7.486536	63.596409	43.364507
-0.445000	-4.179282	-4.936475	96.455532	-0.106175	-0.182445	-0.039315	85.775356	0.897420	-3.250103	14.676839	2.398212	-22.451424	-34.681493	38.756452	9.258766	48.223554	34.492935	22.361071	4.950914	48.078403	33.789217	10.395658	-5.231494	62.892063	43.504700	2.078910	-7.433956	63.489263	43.301373
-0.435000	-4.179282	-4.936475	96.455532	-0.105843	-0.182251	-0.039133	85.737900	0.939394	-3.276842	14.684845	2.542884	-22.458494	-34.740079	38.694168	9.204349	48.253234	34.490718	22.358357	4.945104	48.086066	33.775984	10.404048	-5.236274	62.848603	43.485107	2.094179	-7.381872	63.333871	43.215793
-0.425000	-4.179282	-4.936475	96.455532	-0.105498	-0.182070	-0.038941	85.702673	0.961828	-3.271029	14.689611	2.695856	-22.460001	-34.802375	38.613683	9.146210	48.289125	34.488046	22.332626	4.936606	48.092197	33.761326	10.396654	-5.234769	62.811268	43.465279	2.121605	-7.334116	63.147344	43.117446
-0.415000	-4.179282	-4.936475	96.455532	-0.105144	-0.181917	-0.038744	85.666849	0.962777	-3.229004	14.687473	2.831774	-22.458559	-34.859979	38.532803	9.087379	48.325647	34.480887	22.297525	4.929913	48.092237	33.740127	10.390640	-5.225655	62.778696	43.437612	2.159828	-7.295004	62.962243	43.024754
-0.405000	-4.179282	-4.936475	96.455532	-0.104786	-0.181799	-0.038545	85.628718	0.946916	-3.157356	14.671775	2.931867	-22.458706	-34.904867	38.472375	9.031268	48.358797	34.466978	22.275194	4.929369	48.086261	33.709918	10.406443	-5.210202	62.749404	43.397070	2.201160	-7.266238	62.816958	42.958956
-0.395000	-4.179282	-4.936475	96.455532	-0.104427	-0.181723	-0.038346	85.586087	0.921345	-3.071406	14.636442	2.991324	-22.465207	-34.933598	38.449342	8.981253	48.390510	34.448899	22.287228	4.937479	48.081453	33.674078	10.458624	-5.192569	62.725656	43.345921	2.237089	-7.245852	62.742542	42.935526
-0.385000	-4.179282	-4.936475	96.455532	-0.104073	-0.181691	-0.038144	85.534949	0.890972	-2.990973	14.580172	3.019809	-22.481242	-34.949677	38.473171	8.939975	48.431026	34.435121	22.345416	4.954107	48.091706	33.643075	10.549285	-5.178213	62.715871	43.295507	2.265292	-7.229977	62.752951	42.957693
-0.375000	-4.179282	-4.936475	96.455532	-0.103732	-0.181700	-0.037940	85.470155	0.856548	-2.934457	14.508756	3.035037	-22.507834	-34.962408	38.545809	8.908744	48.496394	34.437431	22.446880	4.976745	48.133960	33.632508	10.667817	-5.171458	62.733564	43.263421	2.292278	-7.215767	62.843376	43.015805
-0.365000	-4.179282	-4.936475	96.455532	-0.103415	-0.181744	-0.037736	85.388590	0.815992	-2.912117	14.433837	3.054404	-22.545083	-34.983096	38.662239	8.887431	48.600670	34.465226	22.575370	5.001602	48.222282	33.657957	10.796890	-5.173809	62.792861	43.266989	2.329458	-7.203212	62.995807	43.092501
-0.355000	-4.179282	-4.936475	96.455532	-0.103130	-0.181805	-0.037537	85.293626	0.766852	-2.919917	14.368276	3.091330	-22.593941	-35.020925	38.808778	8.874761	48.746667	34.519851	22.707400	5.025123	48.362036	33.728515	10.921109	-5.183934	62.902794	43.316146	2.386977	-7.195367	63.187030	43.169999
-0.345000	-4.179282	-4.936475	96.455532	-0.102877	-0.181847	-0.037350	85.198417	0.707073	-2.936260	14.319989	3.159442	-22.655974	-35.079917	38.959477	8.868698	48.921938	34.593234	22.820738	5.045344	48.547145	33.842249	11.034039	-5.199005	63.063099	43.409213	2.472623	-7.198124	63.394545	43.235189
-0.335000	-4.179282	-4.936475	96.455532	-0.102643	-0.181819	-0.037172	85.125318	0.633155	-2.924039	14.287182	3.280220	-22.729926	-35.156804	39.074553	8.866328	49.104285	34.672747	22.903060	5.062128	48.762018	33.986253	11.141264	-5.216284	63.262768	43.533321	2.598221	-7.219563	63.599433	43.280694
-0.325000	-4.179282	-4.936475	96.455532	-0.102392	-0.181651	-0.036990	85.099891	0.537422	-2.838821	14.257958	3.484138	-22.807442	-35.239862	39.105126	8.862288	49.274072	34.749642	22.958915	5.075555	48.986625	34.141125	11.259618	-5.233657	63.480447	43.668390	2.787091	-7.266770	63.787785	43.303158
-0.315000	-4.179282	-4.936475	96.455532	-0.102058	-0.181263	-0.036765	85.140317	0.407040	-2.641604	14.215930	3.798255	-22.872211	-35.309844	39.004690	8.844987	49.424802	34.825359	23.012511	5.082962	49.201104	34.286902	11.413807	-5.248565	63.685496	43.792009	3.073328	-7.338675	63.951674	43.300961
-0.305000	-4.179282	-4.936475	96.455532	-0.101540	-0.180574	-0.036439	85.245581	0.226125	-2.312645	14.150451	4.225274	-22.904525	-35.344023	38.742672	8.791744	49.564596	34.911415	23.103524	5.076778	49.387734	34.407372	11.631278	-5.256143	63.840664	43.883481	3.491037	-7.418200	64.088265	43.272201
-0.295000	-4.179282	-4.936475	96.455532	-0.100709	-0.179507	-0.035932	85.387029	-0.019473	-1.862172	14.066857	4.730931	-22.889167	-35.323044	38.313370	8.666751	49.708321	35.023122	23.274959	5.045963	49.531734	34.492197	11.935820	-5.248521	63.909072	43.927407	4.061747	-7.471074	64.195222	43.212470
-0.285000	-4.179282	-4.936475	96.455532	-0.099418	-0.177996	-0.035153	85.507604	-0.335311	-1.334418	13.990944	5.255430	-22.822679	-35.239132	37.736440	8.426789	49.866548	35.171001	23.556321	4.981935	49.623596	34.538246	12.341004	-5.216906	63.865728	43.917584	4.789839	-7.456430	64.262754	43.112402
-0.275000	-4.179282	-4.936475	96.455532	-0.097528	-0.175992	-0.034008	85.531382	-0.709410	-0.803579	13.964179	5.748946	-22.717222	-35.103629	37.050253	8.036126	50.038845	35.354374	23.949673	4.886028	49.663209	34.550787	12.846028	-5.156027	63.707970	43.859926	5.667781	-7.345391	64.265477	42.956220
-0.265000	-4.179282	-4.936475	96.455532	-0.094914	-0.173468	-0.032421	85.381957	-1.102826	-0.362791	14.030627	6.213096	-22.600054	-34.950932	36.302124	7.485060	50.216024	35.560157	24.426751	4.772931	49.662478	34.542925	13.437053	-5.068250	63.455938	43.771063	6.684803	-7.136211	64.158283	42.722671
-0.255000	-4.179282	-4.936475	96.455532	-0.091481	-0.170432	-0.030345	85.002355	-1.445622	-0.108158	14.220944	6.723910	-22.508220	-34.835126	35.538288	6.802011	50.391228	35.767877	24.939829	4.666339	49.642451	34.531041	14.094557	-4.964450	63.138801	43.670541	7.831653	-6.855765	63.879993	42.388680
-0.245000	-4.179282	-4.936475	96.455532	-0.087157	-0.166931	-0.027775	84.366060	-1.646564	-0.118973	14.541021	7.420719	-22.478179	-34.817254	34.794060	6.051343	50.574358	35.959226	25.439909	4.588267	49.624041	34.526513	14.801983	-4.860901	62.772907	43.569086	9.098002	-6.546414	63.367436	41.935439
-0.235000	-4.179282	-4.936475	96.455532	-0.081886	-0.163061	-0.024746	83.473151	-1.620175	-0.435171	14.971756	8.463177	-22.532238	-34.946704	34.084007	5.316503	50.800355	36.127423	25.889854	4.547900	49.616262	34.527774	15.547910	-4.774059	62.345686	43.459325	10.462780	-6.246369	62.579122	41.356217
-0.225000	-4.179282	-4.936475	96.455532	-0.075631	-0.158962	-0.021325	82.335778	-1.324414	-1.035929	15.481554	9.975622	-22.667537	-35.246218	33.393627	4.674839	51.122691	36.280305	26.263881	4.536297	49.608436	34.517945	16.317854	-4.715701	61.816734	43.315071	11.881500	-5.974608	61.519365	40.663249
-0.215000	-4.179282	-4.936475	96.455532	-0.068378	-0.154804	-0.017597	80.965192	-0.792963	-1.827996	16.045798	12.004691	-22.855043	-35.710118	32.676703	4.173733	51.590348	36.433612	26.536723	4.529871	49.571674	34.470164	17.081356	-4.689640	61.136854	43.100721	13.279655	-5.727621	60.246357	39.888530
-0.205000	-4.179282	-4.936475	96.455532	-0.060164	-0.150764	-0.013651	79.371006	-0.144103	-2.654034	16.661682	14.507099	-23.051983	-36.317283	31.864014	3.817457	52.217331	36.597098	26.675199	4.500813	49.471070	34.358358	17.786568	-4.690113	60.275601	42.786825	14.562003	-5.487969	58.852991	39.075052
